<?xml version="1.0" encoding="UTF-8"?>
<svg version="1.1" xmlns="http://www.w3.org/2000/svg" width="500" height="354">
<path d="M0 0 C0.84433594 0.64066406 1.68867188 1.28132813 2.55859375 1.94140625 C15.49269176 12.06959296 26.89093051 24.03002381 36.66259766 37.20947266 C38.05860494 39.07846087 39.48493386 40.92099794 40.91796875 42.76171875 C57.75582892 64.54400822 70.870147 88.87806896 84 113 C84.55255171 98.61830686 83.58950072 84.71169634 82 70.4375 C77.05480265 25.55085758 77.05480265 25.55085758 86.50390625 11.83984375 C95.80150573 0.4059812 109.80678798 -4.0464074 124 -6 C135.33826393 -7.02780064 146.42874754 -7.43122984 156.00390625 -0.5625 C161.69930292 4.38381527 164.41175767 10.59898293 165.22314453 18.04882812 C167.85971179 55.57238723 147.44487044 94.37702715 129.890625 126.4453125 C128.37399655 129.22872021 127.09093247 132.01734421 126 135 C127.13179688 135.42152344 128.26359375 135.84304687 129.4296875 136.27734375 C130.91147994 136.83067131 132.39324959 137.38405989 133.875 137.9375 C134.62136719 138.21529297 135.36773437 138.49308594 136.13671875 138.77929688 C141.7734375 140.88671875 141.7734375 140.88671875 144 142 C144.24492187 141.14019531 144.48984375 140.28039062 144.7421875 139.39453125 C151.93052052 119.99496169 170.97257997 105.39428514 189.09716797 96.84765625 C201.03983129 91.52754757 214.11708858 88.15115145 227.2109375 87.80859375 C228.54378784 87.77233887 228.54378784 87.77233887 229.90356445 87.73535156 C231.63098767 87.70426397 233.35920602 87.70075403 235.08666992 87.72949219 C241.65611469 87.64721654 244.4143917 85.48796226 249 81 C256.43903451 76.31853863 264.42417904 76 273 76 C260.35514852 49.9749713 260.35514852 49.9749713 239 31 C238.4225 31.28875 237.845 31.5775 237.25 31.875 C236.5075 32.24625 235.765 32.6175 235 33 C234.34773438 33.36351562 233.69546875 33.72703125 233.0234375 34.1015625 C229.42918053 35.6974681 225.84645665 35.54663682 222 35 C217.89677488 32.91108539 215.72180061 31.23469879 214 27 C213.3520195 23.24853395 213.18070881 19.60134187 214.9453125 16.15234375 C217.48792297 12.89812218 219.96973344 10.84354416 224 10 C228.91623227 10.07803543 231.16379688 10.48898698 235.375 13.0625 C239.19261964 17.33459816 240 21.23622576 240 27 C241.89294513 28.57688921 241.89294513 28.57688921 244.375 30.0625 C261.09384444 41.38892842 271.26668526 58.98784909 278.9609375 77.28515625 C280.32861106 79.54233179 281.86328443 80.41030785 284.125 81.75 C289.35376921 85.06663031 295.17119877 89.34239753 298 95 C300.59415812 77.45252396 301.81275468 55.95181288 291.75 40.5 C290.85694837 39.31515922 289.9498466 38.13981592 289 37 C287.515 37.495 287.515 37.495 286 38 C278.87051143 38.56583243 278.87051143 38.56583243 275.5 36.375 C273.55719531 33.29889257 273.47775507 31.58110811 274 28 C275 25.6875 275 25.6875 277 24 C281.49482645 22.91254199 283.71450929 22.42563181 287.9375 24.3125 C290 26 290 26 291 28 C290.896875 29.03125 290.79375 30.0625 290.6875 31.125 C291.06682153 35.82858696 292.52431202 37.30640699 295.40625 40.84765625 C303.87280433 52.28165487 303.29194985 67.701862 303.125 81.25 C303.11493849 82.68879577 303.10581831 84.12759845 303.09765625 85.56640625 C303.0759206 89.04441753 303.04157033 92.52216245 303 96 C303.73968018 96.04825928 304.47936035 96.09651855 305.24145508 96.14624023 C306.22009521 96.22044189 307.19873535 96.29464355 308.20703125 96.37109375 C309.17358643 96.43997803 310.1401416 96.5088623 311.13598633 96.57983398 C319.39312409 97.79119994 325.93029942 103.67674107 331 110 C337.80001726 120.63275426 340.26922938 132.49877296 339 145 C336.61972629 155.41509434 336.61972629 155.41509434 333.859375 159.8203125 C332.46396197 163.35958737 332.97933416 167.01136742 333.125 170.75 C333.47511439 192.6008889 324.22625824 212.16849384 309.375 228.0625 C285.72517322 250.51835495 256.31419646 257.01473039 224.58251953 256.20556641 C216.54212946 255.7442056 208.77868207 254.00740182 201 252 C199.02 254.64 197.04 257.28 195 260 C200.28058647 261.90101113 202.81308087 261.98647967 208 260 C211.25 259.75 211.25 259.75 214 260 C214.66 260.66 215.32 261.32 216 262 C215.625 264.625 215.625 264.625 215 267 C214.34 267 213.68 267 213 267 C212.67 267.99 212.34 268.98 212 270 C210.22865133 269.88252836 208.45793821 269.75547702 206.6875 269.625 C205.59308594 269.54636719 204.49867188 269.46773438 203.37109375 269.38671875 C200.17810933 269.02043201 197.33961265 268.29115174 194.25 267.4375 C190.90879969 266.77502063 189.65040365 266.56716095 186.78125 268.4765625 C184.71979062 270.5419959 184.71979062 270.5419959 182.859375 272.81640625 C180.26524323 275.86287613 177.31529265 277.7898049 174 280 C181.70153358 286.29553154 189.73016374 291.26429726 200 291 C202.33932406 290.35466922 204.67328146 289.68939809 207 289 C210.9375 289.375 210.9375 289.375 214 290 C214.0825 290.61875 214.165 291.2375 214.25 291.875 C214.81258459 294.18437567 214.81258459 294.18437567 217.0625 295.25 C217.701875 295.4975 218.34125 295.745 219 296 C219.125 299.375 219.125 299.375 219 303 C217 305 217 305 213.1875 305.375 C206.77067535 305.22148745 201.0258136 303.03981481 195 301 C193.78699219 300.63777344 192.57398438 300.27554687 191.32421875 299.90234375 C183.05048792 297.36781562 176.24183054 294.139366 168.92578125 289.57421875 C165.96665243 287.68412043 165.96665243 287.68412043 162 288 C159.89397891 288.78959639 159.89397891 288.78959639 157.75390625 289.94140625 C156.51471436 290.56462769 156.51471436 290.56462769 155.25048828 291.20043945 C154.36345215 291.64991943 153.47641602 292.09939941 152.5625 292.5625 C122.77472889 307.13154055 91.11192404 312.44294023 58.1875 312.375 C57.14986511 312.37412384 56.11223022 312.37324768 55.04315186 312.37234497 C8.19640198 312.24203224 -40.38599721 300.3793632 -75 267 C-84.80142466 256.44942186 -93.07410164 243.58289918 -94 229 C-94.886875 229.0825 -95.77375 229.165 -96.6875 229.25 C-105.46142595 229.21433363 -113.92314598 225.76632093 -120.70703125 220.3671875 C-122 219 -122 219 -122 217 C-108.635 217.495 -108.635 217.495 -95 218 C-95.33 214.37 -95.66 210.74 -96 207 C-93.76063716 193.90358833 -85.59706342 182.71178034 -77 173 C-76.47019531 172.38640625 -75.94039062 171.7728125 -75.39453125 171.140625 C-57.46079953 151.777727 -29.15855941 139.34300649 -4 133 C-2.68 133 -1.36 133 0 133 C0 132.34 0 131.68 0 131 C-0.70817871 130.88551514 -1.41635742 130.77103027 -2.14599609 130.65307617 C-5.22901236 129.94759555 -7.79344945 128.87650066 -10.6640625 127.55078125 C-11.77257568 127.03966797 -12.88108887 126.52855469 -14.02319336 126.00195312 C-15.21178955 125.44443359 -16.40038574 124.88691406 -17.625 124.3125 C-18.23892609 124.02544189 -18.85285217 123.73838379 -19.48538208 123.44262695 C-51.03213925 108.66845886 -81.91861307 92.3788748 -108 69 C-108.8971875 68.19949219 -109.794375 67.39898437 -110.71875 66.57421875 C-120.65664744 57.20376299 -129.9162224 44.40631507 -131.23828125 30.4921875 C-131.52537932 20.36820297 -128.71390878 12.00308137 -122.140625 4.2421875 C-87.88350324 -31.64027216 -37.36669183 -29.3635693 0 0 Z " fill="#373638" transform="translate(146,32)"/>
<path d="M0 0 C1.03012207 0.44754639 2.06024414 0.89509277 3.12158203 1.35620117 C4.22099121 1.83677979 5.32040039 2.3173584 6.453125 2.8125 C19.35237092 8.37334127 32.44901065 13.17793961 45.703125 17.8125 C45.69646317 18.40844467 45.68980133 19.00438934 45.68293762 19.61839294 C45.61525385 25.96420751 45.57078979 32.30991581 45.53833008 38.65600586 C45.52347586 41.00728535 45.50318709 43.35853837 45.47680664 45.7097168 C45.2954747 62.31758928 46.25530951 78.38184551 48.703125 94.8125 C48.81270538 95.55875641 48.92228577 96.30501282 49.03518677 97.07388306 C49.64335717 101.1469155 50.33304831 105.19995836 51.078125 109.25 C51.29307617 110.42554443 51.50802734 111.60108887 51.72949219 112.81225586 C54.69427573 128.56780809 59.46402307 143.45004806 64.66894531 158.60180664 C65.04631836 159.7077417 65.42369141 160.81367676 65.8125 161.953125 C66.32248535 163.43087402 66.32248535 163.43087402 66.84277344 164.93847656 C67.703125 167.8125 67.703125 167.8125 68.703125 173.8125 C59.793125 174.8025 59.793125 174.8025 50.703125 175.8125 C50.703125 176.1425 50.703125 176.4725 50.703125 176.8125 C-0.25229778 178.01373401 -51.99986891 168.97184947 -90.76367188 133.29101562 C-101.46627316 122.97016317 -110.34460442 108.81076161 -111.296875 93.8125 C-112.18375 93.895 -113.070625 93.9775 -113.984375 94.0625 C-122.75830095 94.02683363 -131.22002098 90.57882093 -138.00390625 85.1796875 C-139.296875 83.8125 -139.296875 83.8125 -139.296875 81.8125 C-125.931875 82.3075 -125.931875 82.3075 -112.296875 82.8125 C-112.626875 79.1825 -112.956875 75.5525 -113.296875 71.8125 C-110.51184974 55.52490401 -98.9605834 41.80113846 -87.296875 30.8125 C-86.306875 31.3075 -86.306875 31.3075 -85.296875 31.8125 C-82.01795341 30.5519062 -79.68142965 28.52990307 -77.046875 26.25 C-67.85213873 18.80792607 -57.26152667 13.51695939 -46.484375 8.75 C-45.47093018 8.3012854 -45.47093018 8.3012854 -44.43701172 7.84350586 C-41.5525131 6.61071644 -39.46744246 5.8125 -36.296875 5.8125 C-36.296875 5.1525 -36.296875 4.4925 -36.296875 3.8125 C-9.58362341 -4.22294422 -9.58362341 -4.22294422 0 0 Z " fill="#373638" transform="translate(163.296875,167.1875)"/>
<path d="M0 0 C0.67885254 0.05124023 1.35770508 0.10248047 2.05712891 0.15527344 C23.66226382 2.14430054 43.32115819 15.50250156 58.78125 29.93359375 C60.76305793 31.77932684 62.79603216 33.51610674 64.875 35.25 C75.17769254 44.26744719 83.81490413 55.07918475 92 66 C92.51175781 66.68191406 93.02351562 67.36382812 93.55078125 68.06640625 C114.34339679 95.94166455 131.22759869 126.43595406 146.25 157.75 C146.63309326 158.54229004 147.01618652 159.33458008 147.41088867 160.15087891 C150 165.63719914 150 165.63719914 150 169 C147.69 169.33 145.38 169.66 143 170 C142.60707764 169.25927246 142.21415527 168.51854492 141.80932617 167.75537109 C139.83864884 164.75428293 137.89469944 163.08822584 135.05078125 160.9140625 C129.19637317 156.25944669 123.92423643 151.19686863 118.6730957 145.87890625 C117.17653857 144.36390346 115.67194298 142.85724622 114.16601562 141.3515625 C109.23225253 136.39923655 104.45006642 131.3944778 100 126 C103.84205596 131.44431441 108.01341211 136.13641348 112.78515625 140.7890625 C114.75244636 142.75288297 116.57463375 144.75946172 118.375 146.875 C125.0167649 154.57760235 132.13426401 161.72664445 140.41796875 167.66015625 C140.94003906 168.10230469 141.46210938 168.54445312 142 169 C142 169.66 142 170.32 142 171 C139.36 171.33 136.72 171.66 134 172 C134 171.34 134 170.68 134 170 C133.09983154 169.5781543 132.19966309 169.15630859 131.2722168 168.72167969 C114.23217723 160.7122261 97.55398669 152.70730766 82 142 C87.80342071 146.5564131 93.83400568 150.50518374 100.1875 154.25 C101.13061035 154.80776123 102.0737207 155.36552246 103.04541016 155.94018555 C112.73809014 161.57937293 122.7831625 166.39404867 133 171 C133 171.66 133 172.32 133 173 C123.69251456 175.28536949 116.08138923 172.08183245 107.5 168.75 C106.02750719 168.1941502 104.55460033 167.63939613 103.08129883 167.08569336 C-46.69234602 110.39143732 -46.69234602 110.39143732 -71.7734375 56.72265625 C-74.18895091 49.39149611 -74.53115798 41.6737093 -72.10546875 34.26953125 C-70.9173405 31.9608272 -69.60973628 30.03464129 -68 28 C-67.49210937 27.31679688 -66.98421875 26.63359375 -66.4609375 25.9296875 C-50.92312875 6.56265574 -23.92323693 -1.89480734 0 0 Z " fill="#F4F4F4" transform="translate(94,15)"/>
<path d="M0 0 C-0.18175781 0.53367187 -0.36351562 1.06734375 -0.55078125 1.6171875 C-1.08702244 3.20666137 -1.61348416 4.79945135 -2.1328125 6.39453125 C-2.67672381 8.02871522 -3.25058497 9.65355269 -3.8671875 11.26171875 C-8.5843861 24.49233767 -6.69336135 40.11749768 -1.18798828 52.8828125 C4.34315072 64.53383919 11.85962858 73.63142979 23.875 79 C31.98266439 81.54717177 40.62163723 80.94059246 48.13671875 77.09375 C49.71932974 76.16475403 51.26994541 75.18159073 52.8125 74.1875 C55 73 55 73 57.3125 73.3125 C57.869375 73.539375 58.42625 73.76625 59 74 C58.34 73.01 57.68 72.02 57 71 C60.465 66.05 60.465 66.05 64 61 C65.32 61.66 66.64 62.32 68 63 C68 63.66 68 64.32 68 65 C72.33356768 67.23244396 75.30328735 67.25804803 80 66 C84.15655572 62.76712333 85.63098819 60.00169666 87 55 C87.83454325 47.42761807 87.97555526 40.82949203 83.484375 34.453125 C81.036126 32.05641808 79.10266138 30.98904641 75.640625 31.0234375 C74.85171875 31.13945312 74.0628125 31.25546875 73.25 31.375 C72.45078125 31.48585937 71.6515625 31.59671875 70.828125 31.7109375 C70.22484375 31.80632812 69.6215625 31.90171875 69 32 C68.90203125 31.24976563 68.8040625 30.49953125 68.703125 29.7265625 C67.78169097 23.41950543 66.46472655 18.01290952 63.70703125 12.25390625 C62.84046853 9.49143835 63.2368903 7.75594393 64 5 C73.13828531 4.26304151 78.82273532 7.10804753 86.25 12.25 C95.25121631 21.25121631 99.3487981 31.98636555 99.4375 44.625 C99.26682924 55.38555461 96.90310877 62.6739663 90 71 C89.34 71.99 88.68 72.98 88 74 C89.65 72.68 91.3 71.36 93 70 C93.42390074 85.88842776 92.40674391 98.63219019 85 113 C84.37158203 114.23169922 84.37158203 114.23169922 83.73046875 115.48828125 C71.97258865 136.73378794 50.58911511 149.0865034 27.984375 155.95703125 C26.65891166 156.31470125 25.33059183 156.66190792 24 157 C23.27208252 157.18618896 22.54416504 157.37237793 21.79418945 157.56420898 C-4.86505169 163.6604799 -34.06158517 158.44898514 -57.109375 144.05859375 C-59.84785734 142.14397686 -62.42890679 140.13337642 -65 138 C-65.92296875 137.25105469 -66.8459375 136.50210938 -67.796875 135.73046875 C-82.53008291 123.13398298 -92.28166212 105.80223178 -94.26416016 86.41699219 C-95.6399508 67.11412701 -91.31576755 50.3862502 -78.80078125 35.359375 C-76.58764646 32.84940209 -74.31122445 30.41949802 -72 28 C-71.45988281 27.38511719 -70.91976563 26.77023438 -70.36328125 26.13671875 C-53.17870887 7.30727546 -24.62741241 -0.71498939 0 0 Z " fill="#FBBA08" transform="translate(384,125)"/>
<path d="M0 0 C3.81761964 4.27209816 4.625 8.17372576 4.625 13.9375 C6.51794513 15.51438921 6.51794513 15.51438921 9 17 C25.71884444 28.32642842 35.89168526 45.92534909 43.5859375 64.22265625 C44.95361106 66.47983179 46.48828443 67.34780785 48.75 68.6875 C53.97876921 72.00413031 59.79619877 76.27989753 62.625 81.9375 C65.21915812 64.39002396 66.43775468 42.88931288 56.375 27.4375 C55.48194837 26.25265922 54.5748466 25.07731592 53.625 23.9375 C52.635 24.2675 51.645 24.5975 50.625 24.9375 C43.49551143 25.50333243 43.49551143 25.50333243 40.125 23.3125 C38.18219531 20.23639257 38.10275507 18.51860811 38.625 14.9375 C39.625 12.625 39.625 12.625 41.625 10.9375 C46.11982645 9.85004199 48.33950929 9.36313181 52.5625 11.25 C54.625 12.9375 54.625 12.9375 55.625 14.9375 C55.4703125 16.484375 55.4703125 16.484375 55.3125 18.0625 C55.69182153 22.76608696 57.14931202 24.24390699 60.03125 27.78515625 C68.49780433 39.21915487 67.91694985 54.639362 67.75 68.1875 C67.73993849 69.62629577 67.73081831 71.06509845 67.72265625 72.50390625 C67.7009206 75.98191753 67.66657033 79.45966245 67.625 82.9375 C68.36468018 82.98575928 69.10436035 83.03401855 69.86645508 83.08374023 C70.84509521 83.15794189 71.82373535 83.23214355 72.83203125 83.30859375 C73.79858643 83.37747803 74.7651416 83.4463623 75.76098633 83.51733398 C84.01812409 84.72869994 90.55529942 90.61424107 95.625 96.9375 C102.42501726 107.57025426 104.89422938 119.43627296 103.625 131.9375 C101.24472629 142.35259434 101.24472629 142.35259434 98.484375 146.7578125 C97.08896197 150.29708737 97.60433416 153.94886742 97.75 157.6875 C98.10011439 179.5383889 88.85125824 199.10599384 74 215 C50.35017322 237.45585495 20.93919646 243.95223039 -10.79248047 243.14306641 C-18.83287054 242.6817056 -26.59631793 240.94490182 -34.375 238.9375 C-36.355 241.5775 -38.335 244.2175 -40.375 246.9375 C-35.09441353 248.83851113 -32.56191913 248.92397967 -27.375 246.9375 C-24.125 246.6875 -24.125 246.6875 -21.375 246.9375 C-20.715 247.5975 -20.055 248.2575 -19.375 248.9375 C-19.75 251.5625 -19.75 251.5625 -20.375 253.9375 C-21.035 253.9375 -21.695 253.9375 -22.375 253.9375 C-22.705 254.9275 -23.035 255.9175 -23.375 256.9375 C-25.14634867 256.82002836 -26.91706179 256.69297702 -28.6875 256.5625 C-29.78191406 256.48386719 -30.87632812 256.40523438 -32.00390625 256.32421875 C-35.19689067 255.95793201 -38.03538735 255.22865174 -41.125 254.375 C-44.46620031 253.71252063 -45.72459635 253.50466095 -48.59375 255.4140625 C-50.65520938 257.4794959 -50.65520938 257.4794959 -52.515625 259.75390625 C-55.10975677 262.80037613 -58.05970735 264.7273049 -61.375 266.9375 C-53.67346642 273.23303154 -45.64483626 278.20179726 -35.375 277.9375 C-33.03567594 277.29216922 -30.70171854 276.62689809 -28.375 275.9375 C-24.4375 276.3125 -24.4375 276.3125 -21.375 276.9375 C-21.2925 277.55625 -21.21 278.175 -21.125 278.8125 C-20.56241541 281.12187567 -20.56241541 281.12187567 -18.3125 282.1875 C-17.3534375 282.55875 -17.3534375 282.55875 -16.375 282.9375 C-16.25 286.3125 -16.25 286.3125 -16.375 289.9375 C-18.375 291.9375 -18.375 291.9375 -22.1875 292.3125 C-28.60432465 292.15898745 -34.3491864 289.97731481 -40.375 287.9375 C-41.58800781 287.57527344 -42.80101562 287.21304687 -44.05078125 286.83984375 C-52.32451208 284.30531562 -59.13316946 281.076866 -66.44921875 276.51171875 C-69.40834757 274.62162043 -69.40834757 274.62162043 -73.375 274.9375 C-75.67922131 275.84192802 -75.67922131 275.84192802 -78.04296875 277.125 C-78.93693359 277.57617188 -79.83089844 278.02734375 -80.75195312 278.4921875 C-82.61022157 279.44779462 -84.46449157 280.41122162 -86.31445312 281.3828125 C-92.37500401 284.41959533 -96.59401367 285.49161533 -103.375 284.9375 C-105.40549572 280.28340843 -107.39989327 275.61525735 -109.375 270.9375 C-109.80425781 269.93074219 -110.23351562 268.92398437 -110.67578125 267.88671875 C-122.49474846 238.82052902 -127.82483422 205.66460542 -127.58081055 174.35351562 C-127.56250905 171.93869388 -127.56030245 169.52425922 -127.56054688 167.109375 C-127.52741633 151.79286138 -127.13609628 136.86361165 -123.375 121.9375 C-116.68933362 122.50381527 -110.82371682 124.24445614 -104.5 126.4375 C-103.55125 126.75847656 -102.6025 127.07945312 -101.625 127.41015625 C-94.74504743 129.75247628 -94.74504743 129.75247628 -92.375 130.9375 C-92.10816406 130.05449219 -91.84132813 129.17148438 -91.56640625 128.26171875 C-83.69249786 106.29222355 -63.30685857 92.02189532 -43.16796875 82.40625 C-29.6251469 76.70400922 -14.72723749 74.29870086 -0.08569336 74.61621094 C6.39556643 74.57590042 9.09663451 72.3500939 13.625 67.9375 C21.06403451 63.25603863 29.04917904 62.9375 37.625 62.9375 C24.98014852 36.9124713 24.98014852 36.9124713 3.625 17.9375 C3.0475 18.22625 2.47 18.515 1.875 18.8125 C1.1325 19.18375 0.39 19.555 -0.375 19.9375 C-1.02726562 20.30101563 -1.67953125 20.66453125 -2.3515625 21.0390625 C-5.94581947 22.6349681 -9.52854335 22.48413682 -13.375 21.9375 C-17.47822512 19.84858539 -19.65319939 18.17219879 -21.375 13.9375 C-22.0229805 10.18603395 -22.19429119 6.53884187 -20.4296875 3.08984375 C-14.79255717 -4.12497399 -7.49791158 -4.58205708 0 0 Z M-73.828125 112.0703125 C-77.63699314 116.35821007 -80.58241676 120.94307228 -83.375 125.9375 C-83.76171875 126.60136719 -84.1484375 127.26523438 -84.546875 127.94921875 C-85.61554008 129.90980814 -86.51193675 131.87800142 -87.375 133.9375 C-87.74753906 134.79859375 -88.12007813 135.6596875 -88.50390625 136.546875 C-94.64965874 153.07830679 -92.44291125 171.99848909 -86.125 188.12890625 C-75.86770565 210.47931751 -56.07453124 225.63135769 -33.45654297 234.18994141 C-7.41245176 243.54333189 23.04695274 241.15423068 48.08227539 229.79980469 C69.29779523 219.50720779 85.63953574 202.40666683 93.4375 180.0625 C95.64042124 173.25347072 95.75319813 166.64779096 95.6875 159.5625 C95.68073242 158.17224609 95.68073242 158.17224609 95.67382812 156.75390625 C95.66211574 154.48170291 95.64571372 152.20963612 95.625 149.9375 C93.645 151.2575 91.665 152.5775 89.625 153.9375 C90.16769531 153.36902344 90.71039063 152.80054688 91.26953125 152.21484375 C100.43452798 142.32325269 102.14321795 133.56878183 101.89453125 120.30078125 C101.42314251 109.57494578 96.82162192 100.78029748 89.625 92.9375 C84.11467039 88.35474254 78.16375566 84.59305953 70.8125 84.8125 C70.02230469 84.83054687 69.23210937 84.84859375 68.41796875 84.8671875 C67.53044922 84.90199219 67.53044922 84.90199219 66.625 84.9375 C65.53573105 88.87135665 65.68415745 90.83842597 67.4375 94.5 C69.91160461 100.17588704 70.82711968 105.82741648 71.625 111.9375 C72.20507812 111.81890625 72.78515625 111.7003125 73.3828125 111.578125 C77.66181102 110.87201963 79.97281038 110.63556036 84 112.5 C87.73128968 115.96476899 89.39919523 119.20226155 90.05859375 124.26953125 C90.06674164 131.52930437 89.88578256 137.82480868 85.625 143.9375 C83.3125 146.0625 83.3125 146.0625 80.625 146.9375 C77.023999 146.6891551 74.04294848 146.07681616 70.625 144.9375 C69.4375 142.875 69.4375 142.875 68.625 140.9375 C64.80446076 142.21101308 64.39478625 143.56387525 62.4375 147 C61.90769531 147.91910156 61.37789062 148.83820313 60.83203125 149.78515625 C60.23455078 150.85056641 60.23455078 150.85056641 59.625 151.9375 C60.615 152.9275 61.605 153.9175 62.625 154.9375 C61.965 154.504375 61.305 154.07125 60.625 153.625 C57.74513193 152.63760121 57.74513193 152.63760121 55.72265625 153.84765625 C54.38860849 154.7259257 53.07457398 155.63555269 51.78515625 156.578125 C45.22687234 160.70521867 38.11680348 160.63543924 30.625 159.9375 C20.0080054 157.41897997 12.04509952 150.5874444 6.1875 141.59765625 C-2.02208494 127.62083789 -6.1620301 111.31557733 -2.54296875 95.2421875 C-1.58511692 92.09239758 -0.52608603 89.02106622 0.625 85.9375 C1.29722735 83.93936216 1.96546765 81.93986398 2.625 79.9375 C-27.38520561 79.06623597 -52.97157305 90.80134286 -73.828125 112.0703125 Z " fill="#32302E" transform="translate(381.375,45.0625)"/>
<path d="M0 0 C5.12718479 4.2198152 7.89516525 9.49988888 9 16 C12.13574962 55.80659936 -10.02875962 99.80757534 -30 133 C-34.75 132.25 -34.75 132.25 -37 130 C-34.525 124.555 -34.525 124.555 -32 119 C-33.98 122.96 -35.96 126.92 -38 131 C-40.97 130.34 -43.94 129.68 -47 129 C-47.33 123.39 -47.66 117.78 -48 112 C-48 117.28 -48 122.56 -48 128 C-60.625 127.25 -60.625 127.25 -64 125 C-66.9244783 119.61520568 -67.39375814 115.35432491 -67.22265625 109.3046875 C-67.21294296 108.48376114 -67.20322968 107.66283478 -67.19322205 106.81703186 C-67.17222227 105.07104299 -67.1450211 103.32511922 -67.11206055 101.57931519 C-67.02870597 97.03099897 -66.99662427 92.48256551 -66.97265625 87.93359375 C-66.96787262 87.04948318 -66.96308899 86.16537262 -66.9581604 85.25447083 C-66.94731743 79.0948989 -67.23872807 73.05399263 -68 66.9375 C-68.94868078 58.9684123 -69.31530105 51.02846498 -69.40942383 43.00857544 C-69.43655388 41.00729187 -69.48834079 39.00638941 -69.54101562 37.00561523 C-69.58629003 27.24206314 -67.64427808 18.64562506 -61.8125 10.625 C-55.54236345 4.77287255 -48.2508345 1.14905457 -40 -1 C-38.97261719 -1.2784375 -37.94523437 -1.556875 -36.88671875 -1.84375 C-25.13755886 -4.71783668 -10.7514979 -6.92191674 0 0 Z " fill="#F4F4F4" transform="translate(298,34)"/>
<path d="M0 0 C5.7199786 1.85655368 11.37123117 3.85816695 17.0065918 5.95678711 C25.61159815 9.15605555 34.02919369 12.02282775 43 14 C43.99 14.33 44.98 14.66 46 15 C45.99333817 15.59594467 45.98667633 16.19188934 45.97981262 16.80589294 C45.91212885 23.15170751 45.86766479 29.49741581 45.83520508 35.84350586 C45.82035086 38.19478535 45.80006209 40.54603837 45.77368164 42.8972168 C45.5923497 59.50508928 46.55218451 75.56934551 49 92 C49.16437057 93.11938461 49.16437057 93.11938461 49.33206177 94.26138306 C49.94023217 98.3344155 50.62992331 102.38745836 51.375 106.4375 C51.58995117 107.61304443 51.80490234 108.78858887 52.02636719 109.99975586 C54.99115073 125.75530809 59.76089807 140.63754806 64.96582031 155.78930664 C65.34319336 156.8952417 65.72056641 158.00117676 66.109375 159.140625 C66.44936523 160.12579102 66.78935547 161.11095703 67.13964844 162.12597656 C68.0218767 165.0730796 68.55901294 167.95820435 69 171 C62.47189383 171.75846087 56.06207901 172.13996515 49.4921875 172.09765625 C48.64069122 172.0962413 47.78919495 172.09482635 46.91189575 172.09336853 C44.23289241 172.08783919 41.55397743 172.07530074 38.875 172.0625 C37.04166789 172.05747584 35.20833444 172.05291455 33.375 172.04882812 C28.91663341 172.03789306 24.45833161 172.02067872 20 172 C16.90231439 164.4249557 14.31917545 156.84881732 12 149 C11.68160156 148.00097656 11.36320313 147.00195312 11.03515625 145.97265625 C7.61493435 134.86036903 5.64832857 123.45264293 3.55957031 112.03027344 C3.08617435 109.46666492 2.59322537 106.90861398 2.0859375 104.3515625 C-1.69747372 84.9161653 -2.33405389 65.25021111 -2.26074219 45.49975586 C-2.2499318 42.04067785 -2.26076247 38.58211026 -2.2734375 35.12304688 C-2.27979121 23.25718263 -1.94507307 11.72249904 0 0 Z " fill="#FCC516" transform="translate(163,170)"/>
<path d="M0 0 C6.68566638 0.56631527 12.55128318 2.30695614 18.875 4.5 C20.298125 4.98146484 20.298125 4.98146484 21.75 5.47265625 C28.62995257 7.81497628 28.62995257 7.81497628 31 9 C30.566875 10.47533203 30.566875 10.47533203 30.125 11.98046875 C25.48326316 28.86664484 25.14886091 45.36833751 31 62 C31.33515625 62.96679688 31.6703125 63.93359375 32.015625 64.9296875 C33.37122245 68.55537274 34.60914353 71.49790562 37.00390625 74.57421875 C39.76577106 79.31424896 40.21188278 83.86798614 40.9375 89.25 C43.16728845 103.98865661 46.92389022 117.76727097 52.20849609 131.69702148 C52.85929473 133.4456469 53.43672883 135.22124895 54 137 C53.67 137.66 53.34 138.32 53 139 C47.3696665 133.00682279 42.31744277 127.00949532 38 120 C46.05423022 136.39177507 59.62934738 149.76772586 76.75 156.4375 C83.20164463 158.57885783 87.73502747 158.57024514 94 156 C97.3125 155.875 97.3125 155.875 100 156 C100 156.99 100 157.98 100 159 C99.67 159.33 99.34 159.66 99 160 C100.98 160.66 102.96 161.32 105 162 C105.042721 163.66611905 105.04063832 165.33382885 105 167 C104 168 104 168 100.625 168.3125 C95.94355624 168.26243108 92.14991515 166.76645614 87.8359375 165.05859375 C85.16675963 164.06224774 82.58525198 163.38698356 79.8125 162.75 C61.67890899 157.90574069 46.32530877 146.33270721 36.40234375 130.44140625 C33 124.51810585 33 124.51810585 33 122 C32.34 122 31.68 122 31 122 C36.16536494 132.00511949 42.05350884 140.0242938 50 148 C49 151 49 151 47.30102539 152.11914062 C46.57391357 152.46138672 45.84680176 152.80363281 45.09765625 153.15625 C44.28876953 153.53910156 43.47988281 153.92195312 42.64648438 154.31640625 C41.79376953 154.70699219 40.94105469 155.09757813 40.0625 155.5 C39.24458984 155.89058594 38.42667969 156.28117188 37.58398438 156.68359375 C31.85619248 159.35626334 26.09678998 161.34410178 20 163 C17.96950428 158.34590843 15.97510673 153.67775735 14 149 C13.57074219 147.99324219 13.14148438 146.98648438 12.69921875 145.94921875 C0.88025154 116.88302902 -4.44983422 83.72710542 -4.20581055 52.41601562 C-4.18750905 50.00119388 -4.18530245 47.58675922 -4.18554688 45.171875 C-4.15241633 29.85536138 -3.76109628 14.92611165 0 0 Z " fill="#FBC517" transform="translate(258,167)"/>
<path d="M0 0 C-0.07001221 1.01908447 -0.14002441 2.03816895 -0.2121582 3.08813477 C-0.90920525 13.71153788 -1.20504662 24.29227445 -1.1875 34.9375 C-1.18623108 35.74213684 -1.18496216 36.54677368 -1.18365479 37.37579346 C-1.07427755 74.07863569 3.99470905 110.27296329 13.45263672 145.72973633 C14 148 14 148 14 150 C-3.08245176 147.35434304 -20.27195674 135.07532938 -33 124 C-33.89847656 123.33484375 -34.79695313 122.6696875 -35.72265625 121.984375 C-42.52363416 116.3870234 -44.25765465 111.32739649 -45.2277832 102.92260742 C-45.40858946 101.04049397 -45.5746268 99.15692629 -45.72900391 97.27246094 C-45.98043339 94.23628006 -46.27368364 91.20646494 -46.58206177 88.17559814 C-48.21243589 72.14268163 -49.46847305 56.11076523 -50 40 C-51.485 40.495 -51.485 40.495 -53 41 C-54.04896575 43.55223485 -54.04896575 43.55223485 -55 47 C-55.65800676 48.81566181 -56.32545173 50.62791847 -57 52.4375 C-58.52084273 56.59144357 -59.86051846 60.72694423 -61 65 C-61.33 65 -61.66 65 -62 65 C-61.24829672 49.96593449 -53.18889385 37.34918971 -43.3125 26.4375 C-42.8489209 25.92445313 -42.3853418 25.41140625 -41.90771484 24.8828125 C-39.48010695 22.29010281 -37.32402904 20.31559932 -34 19 C-34 19.66 -34 20.32 -34 21 C-33.175 20.31035156 -32.35 19.62070313 -31.5 18.91015625 C-8.41838633 0 -8.41838633 0 0 0 Z " fill="#FCC516" transform="translate(112,179)"/>
<path d="M0 0 C11.08514008 7.64042055 16.58057513 18.2787253 20.65234375 30.828125 C20.98234375 31.818125 21.31234375 32.808125 21.65234375 33.828125 C22.7111805 46.6601542 23.07504772 59.34846446 16.65234375 70.828125 C16.306875 71.46492188 15.96140625 72.10171875 15.60546875 72.7578125 C11.6588374 79.2600494 5.1003931 84.99274803 -2.1796875 87.4453125 C-11.80811117 89.14546659 -20.26725712 88.46116128 -28.34765625 82.828125 C-39.41103577 74.55307691 -47.02162328 62.73168559 -49.16015625 48.890625 C-49.25391245 47.53826285 -49.31161558 46.18325403 -49.34765625 44.828125 C-49.39792969 43.79171875 -49.44820313 42.7553125 -49.5 41.6875 C-49.87310385 28.13636821 -47.6105543 14.80540646 -38.203125 4.47265625 C-27.09863736 -5.91297188 -13.52666983 -7.77102642 0 0 Z " fill="#FCFCFC" transform="translate(429.34765625,116.171875)"/>
<path d="M0 0 C0.84433594 0.64066406 1.68867188 1.28132813 2.55859375 1.94140625 C15.49269176 12.06959296 26.89093051 24.03002381 36.66259766 37.20947266 C38.05860494 39.07846087 39.48493386 40.92099794 40.91796875 42.76171875 C55.67828763 61.85639795 67.46924832 82.92126046 79.125 104 C79.83571655 105.2828186 79.83571655 105.2828186 80.56079102 106.59155273 C80.99705811 107.38634033 81.4333252 108.18112793 81.8828125 109 C82.26840332 109.70125 82.65399414 110.4025 83.05126953 111.125 C84 113 84 113 85 116 C84.34 116.99 83.68 117.98 83 119 C82.6690332 118.40799805 82.33806641 117.81599609 81.99707031 117.20605469 C64.95354756 86.76700338 47.20805024 57.20942725 24 31 C23.4829248 30.41444336 22.96584961 29.82888672 22.43310547 29.22558594 C15.47256267 21.39680591 8.35684448 14.36654867 0 8 C-1.36318359 6.89591797 -1.36318359 6.89591797 -2.75390625 5.76953125 C-22.40541626 -9.76451952 -45.77019681 -18.65105306 -71 -16 C-87.79236788 -13.29036435 -107.22035774 -4.03675677 -117.9296875 9.42578125 C-119.40092922 11.57632836 -120.74702145 13.71669763 -122 16 C-122.36867188 16.59425781 -122.73734375 17.18851563 -123.1171875 17.80078125 C-125.7798944 24.43398473 -124.94562033 32.96626925 -122.85546875 39.671875 C-116.48275386 53.37863891 -105.93838169 63.99269685 -94 73 C-92.48986328 74.19689453 -92.48986328 74.19689453 -90.94921875 75.41796875 C-61.39534167 98.81117804 -26.84802337 114.86921705 7 131 C7 131.66 7 132.32 7 133 C3.79265991 133.81645473 0.58396284 134.62744888 -2.625 135.4375 C-3.52863281 135.66759766 -4.43226563 135.89769531 -5.36328125 136.13476562 C-9.89245948 137.27532511 -14.3713669 138.33107794 -19 139 C-19 139.66 -19 140.32 -19 141 C-19.71800781 141.24492187 -20.43601562 141.48984375 -21.17578125 141.7421875 C-36.38019456 147.23319604 -50.49178566 154.72967705 -63 165 C-64.66621627 166.33389613 -66.33275049 167.66739555 -68 169 C-68.66 168.67 -69.32 168.34 -70 168 C-66.47287233 163.40807907 -62.98233697 160.24421587 -58.125 157.125 C-57.4664502 156.69719238 -56.80790039 156.26938477 -56.12939453 155.82861328 C-40.59038076 145.88231287 -18.82043916 133 0 133 C0 132.34 0 131.68 0 131 C-0.70817871 130.88551514 -1.41635742 130.77103027 -2.14599609 130.65307617 C-5.22901236 129.94759555 -7.79344945 128.87650066 -10.6640625 127.55078125 C-11.77257568 127.03966797 -12.88108887 126.52855469 -14.02319336 126.00195312 C-15.21178955 125.44443359 -16.40038574 124.88691406 -17.625 124.3125 C-18.23892609 124.02544189 -18.85285217 123.73838379 -19.48538208 123.44262695 C-51.03213925 108.66845886 -81.91861307 92.3788748 -108 69 C-108.8971875 68.19949219 -109.794375 67.39898437 -110.71875 66.57421875 C-120.65664744 57.20376299 -129.9162224 44.40631507 -131.23828125 30.4921875 C-131.52537932 20.36820297 -128.71390878 12.00308137 -122.140625 4.2421875 C-87.88350324 -31.64027216 -37.36669183 -29.3635693 0 0 Z " fill="#302F32" transform="translate(146,32)"/>
<path d="M0 0 C9.13828531 -0.73695849 14.82273532 2.10804753 22.25 7.25 C31.25121631 16.25121631 35.3487981 26.98636555 35.4375 39.625 C35.25824259 50.9269305 32.69659078 59.50182673 24.41796875 67.53515625 C18.41582043 72.74714833 14.11044115 73.43876348 6.27734375 73.32421875 C1.60996755 72.86248785 -1.0972707 71.57727406 -5 69 C-5.66 68.01 -6.32 67.02 -7 66 C-4.69 62.7 -2.38 59.4 0 56 C1.32 56.66 2.64 57.32 4 58 C4 58.66 4 59.32 4 60 C8.33356768 62.23244396 11.30328735 62.25804803 16 61 C20.15655572 57.76712333 21.63098819 55.00169666 23 50 C23.83454325 42.42761807 23.97555526 35.82949203 19.484375 29.453125 C17.036126 27.05641808 15.10266138 25.98904641 11.640625 26.0234375 C10.45726562 26.19746094 10.45726562 26.19746094 9.25 26.375 C8.05117188 26.54128906 8.05117188 26.54128906 6.828125 26.7109375 C6.22484375 26.80632812 5.6215625 26.90171875 5 27 C4.90203125 26.24976563 4.8040625 25.49953125 4.703125 24.7265625 C3.78169097 18.41950543 2.46472655 13.01290952 -0.29296875 7.25390625 C-1.15953147 4.49143835 -0.7631097 2.75594393 0 0 Z " fill="#F9F9F9" transform="translate(448,130)"/>
<path d="M0 0 C0.33 0.66 0.66 1.32 1 2 C1.66 2 2.32 2 3 2 C2.835 3.19625 2.67 4.3925 2.5 5.625 C0.59029508 23.1998206 2.92199104 39.29321187 13.34375 53.96875 C19.15462075 61.09528959 26.04265195 66.32255245 35.33203125 67.37890625 C44.37549654 67.68264127 51.85527215 66.5140084 58.875 60.5625 C59.926875 59.2940625 59.926875 59.2940625 61 58 C61.64839844 57.24847656 62.29679687 56.49695313 62.96484375 55.72265625 C65.10825636 52.85517335 66.36862381 50.19507319 67.6875 46.875 C68.10386719 45.84117187 68.52023437 44.80734375 68.94921875 43.7421875 C71.21619816 37.8261297 71.219698 32.78766574 71.25 26.5 C71.270625 25.46101563 71.29125 24.42203125 71.3125 23.3515625 C71.34858266 16.11698953 70.26115937 9.86874053 68 3 C68.66 2.34 69.32 1.68 70 1 C72.55327104 7.83911885 74.5644718 13.66186666 74 21 C74.515625 20.649375 75.03125 20.29875 75.5625 19.9375 C79.07330611 18.58718996 81.37866919 19.11055033 85 20 C89.30520291 22.64182906 91.05480272 25.39727967 93 30 C94.04726647 38.04791261 93.81577778 46.2012549 89 53 C85.63502395 56.14064431 84.04084106 56.98173963 79.4375 57.0625 C75.42305127 55.82167039 73.77000924 54.08658173 71 51 C70.34 51 69.68 51 69 51 C67.40604084 53.24883311 67.40604084 53.24883311 65.875 56 C65.33617187 56.928125 64.79734375 57.85625 64.2421875 58.8125 C63.83226562 59.534375 63.42234375 60.25625 63 61 C64.32 62.32 65.64 63.64 67 65 C66.01 64.566875 65.02 64.13375 64 63.6875 C61.46772963 62.94572383 60.40278316 62.81986857 57.96484375 63.91015625 C56.64659604 64.78136813 55.35233849 65.69041754 54.08984375 66.640625 C47.63180582 70.84136743 40.42147688 70.68344179 33 70 C22.06680028 67.51446683 13.50182693 59.84679051 7.52734375 50.625 C-0.75527959 36.38990311 -5.01943379 19.33798625 -1 3 C-0.67 2.01 -0.34 1.02 0 0 Z " fill="#302F32" transform="translate(379,136)"/>
<path d="M0 0 C5.97528908 2.68201911 8.69131632 7.06693119 11 13 C13.25773023 19.7731907 12.54987109 27.29436207 10.05859375 33.921875 C8.0010874 37.96096496 5.11262059 41.9436897 1 44 C-3.79183149 44.67085641 -7.08525083 44.53504197 -11.3125 42.0625 C-16.8043771 36.5706229 -18.23344338 30.54526901 -18.25 22.9375 C-18.18649798 20.95759782 -18.110051 18.97786094 -18 17 C-16.515 17.99 -16.515 17.99 -15 19 C-11.92334973 18.91778291 -11.92334973 18.91778291 -9 18 C-6.53627448 14.30441172 -6.42416439 11.28955801 -7 7 C-8.3509288 4.0745356 -8.3509288 4.0745356 -10 2 C-6.21258732 -0.52494179 -4.49681366 -0.52462826 0 0 Z " fill="#302F32" transform="translate(421,148)"/>
<path d="M0 0 C-0.33 2.97 -0.66 5.94 -1 9 C-1.8765625 9.20753906 -2.753125 9.41507813 -3.65625 9.62890625 C-12.39714903 11.75194982 -21.05040766 14.11173699 -29.6875 16.625 C-30.72648437 16.92607666 -31.76546875 17.22715332 -32.8359375 17.53735352 C-34.31513672 17.97132446 -34.31513672 17.97132446 -35.82421875 18.4140625 C-36.70166748 18.6713916 -37.57911621 18.9287207 -38.4831543 19.19384766 C-41.03909837 19.96926535 -41.03909837 19.96926535 -43.57348633 21.09912109 C-46 22 -46 22 -50 22 C-50 37.18 -50 52.36 -50 68 C-52.13383075 63.7323385 -52.29103941 60.72950575 -52.265625 56.11328125 C-52.26753845 55.33800583 -52.2694519 54.56273041 -52.27142334 53.76396179 C-52.27278385 52.11729611 -52.26909671 50.47061966 -52.26074219 48.82397461 C-52.25022931 46.36611075 -52.26054197 43.90901012 -52.2734375 41.45117188 C-52.28353476 33.43869062 -52.04956766 25.46007453 -51.296875 17.48046875 C-51.24452698 16.76941483 -51.19217896 16.0583609 -51.13824463 15.32575989 C-50.91699219 13.33276367 -50.91699219 13.33276367 -50 10 C-47.64550781 8.13793945 -47.64550781 8.13793945 -45 7 C-43.80375 6.443125 -42.6075 5.88625 -41.375 5.3125 C-38 4 -38 4 -35 4 C-35 3.34 -35 2.68 -35 2 C-12.17895442 -5.41286863 -12.17895442 -5.41286863 0 0 Z " fill="#535251" transform="translate(162,169)"/>
<path d="M0 0 C-0.06029967 1.91752953 -0.14916707 3.83417426 -0.25 5.75 C-0.29640625 6.81734375 -0.3428125 7.8846875 -0.390625 8.984375 C-1.14318138 12.70856428 -1.99358962 13.71009322 -5 16 C-7.50839444 17.35626678 -9.9851859 18.60731381 -12.5625 19.8125 C-25.03354116 25.87312699 -35.31691889 33.06797476 -45 43.0625 C-47 45 -47 45 -49 45 C-49.33 43.35 -49.66 41.7 -50 40 C-51.485 40.495 -51.485 40.495 -53 41 C-54.04896575 43.55223485 -54.04896575 43.55223485 -55 47 C-55.65800676 48.81566181 -56.32545173 50.62791847 -57 52.4375 C-58.52084273 56.59144357 -59.86051846 60.72694423 -61 65 C-61.33 65 -61.66 65 -62 65 C-61.24829672 49.96593449 -53.18889385 37.34918971 -43.3125 26.4375 C-42.8489209 25.92445313 -42.3853418 25.41140625 -41.90771484 24.8828125 C-39.48010695 22.29010281 -37.32402904 20.31559932 -34 19 C-34 19.66 -34 20.32 -34 21 C-33.175 20.31035156 -32.35 19.62070313 -31.5 18.91015625 C-8.41838633 0 -8.41838633 0 0 0 Z " fill="#FAD73F" transform="translate(112,179)"/>
<path d="M0 0 C3.05831573 1.27171344 3.81632165 2.25640413 6 5 C7.08002256 9.62986413 6.64083279 12.93931125 4.1875 17 C0.76794267 20.12645241 -2.44363461 20.33936592 -6.99609375 20.2890625 C-10.1795833 19.82984568 -11.84225238 18.2885202 -14 16 C-15.20190901 12.39427296 -15.32670315 9.7897565 -15 6 C-10.98349062 -0.15864772 -7.05022655 -1.0038011 0 0 Z " fill="#FA820E" transform="translate(377,45)"/>
<path d="M0 0 C1.84288788 3.68577577 2.24701045 4.72122653 2.1953125 8.546875 C2.18886719 9.39121094 2.18242187 10.23554688 2.17578125 11.10546875 C2.15902344 11.97816406 2.14226562 12.85085937 2.125 13.75 C2.11597656 14.63816406 2.10695312 15.52632812 2.09765625 16.44140625 C2.0741475 18.62772011 2.03827811 20.81389484 2 23 C4.97 23.66 7.94 24.32 11 25 C11.2475 24.195625 11.495 23.39125 11.75 22.5625 C13.26078647 18.25675857 15.10188856 14.14635993 17 10 C18.29847074 13.89541221 17.35062199 14.89468086 15.5625 18.5 C13.50060178 22.55852672 13.50060178 22.55852672 13 27 C11.68 27 10.36 27 9 27 C8.67 29.31 8.34 31.62 8 34 C7.34 34 6.68 34 6 34 C6 34.99 6 35.98 6 37 C5.15695313 36.91621094 4.31390625 36.83242187 3.4453125 36.74609375 C2.34960938 36.64425781 1.25390625 36.54242188 0.125 36.4375 C-0.96554688 36.33308594 -2.05609375 36.22867188 -3.1796875 36.12109375 C-5.95152023 35.77360596 -5.95152023 35.77360596 -8 37 C-9.81538365 33.23054828 -11.62681062 29.45920862 -13.4375 25.6875 C-13.95376953 24.61564453 -14.47003906 23.54378906 -15.00195312 22.43945312 C-15.74155273 20.89741211 -15.74155273 20.89741211 -16.49609375 19.32421875 C-16.95169678 18.37635498 -17.4072998 17.42849121 -17.87670898 16.4519043 C-19 14 -19 14 -20 11 C-19.34 10.01 -18.68 9.02 -18 8 C-17.8040625 8.77085937 -17.608125 9.54171875 -17.40625 10.3359375 C-15.96177683 16.01283427 -15.96177683 16.01283427 -12.19921875 20.140625 C-10.09570508 20.64710208 -8.16003444 20.86016813 -6 21 C-3.69 21.33 -1.38 21.66 1 22 C0.67 14.74 0.34 7.48 0 0 Z " fill="#555556" transform="translate(249,140)"/>
<path d="M0 0 C6.68566638 0.56631527 12.55128318 2.30695614 18.875 4.5 C20.298125 4.98146484 20.298125 4.98146484 21.75 5.47265625 C28.62995257 7.81497628 28.62995257 7.81497628 31 9 C30.34 11.31 29.68 13.62 29 16 C22.63607006 15.28873724 16.40594861 14.17531926 10.125 12.9375 C8.25292951 12.56995355 6.38054798 12.20398676 4.5078125 11.83984375 C3.28022217 11.59802368 3.28022217 11.59802368 2.02783203 11.35131836 C0.01456591 10.94309822 0.01456591 10.94309822 -2 11 C-1.125 3.375 -1.125 3.375 0 0 Z " fill="#FBDB42" transform="translate(258,167)"/>
<path d="M0 0 C0 0.66 0 1.32 0 2 C-2 3.625 -2 3.625 -4 5 C-3.71125 5.5775 -3.4225 6.155 -3.125 6.75 C-2 9 -2 9 -1.125 11.125 C0.28406144 13.47343574 1.56600684 13.80280988 4 15 C5.24720542 15.93473639 6.47590384 16.89454693 7.6875 17.875 C16.55914373 24.65724726 25.92472282 27.14616241 37 26 C44.8417859 23.80247628 52.0576185 20.21565801 59 16 C59 16.66 59 17.32 59 18 C50.1511211 25.93003369 38.77867342 30.94771957 26.83984375 30.3515625 C13.45460002 28.6945172 3.32609656 21.42029955 -6 12 C-6.33 11.34 -6.66 10.68 -7 10 C-8.98 10.33 -10.96 10.66 -13 11 C-12.73212125 7.07111171 -12.47562903 5.45123779 -9.5625 2.6875 C-6.0014051 0.34238872 -4.23680921 -0.11149498 0 0 Z " fill="#3D372A" transform="translate(397,213)"/>
<path d="M0 0 C0.33 0.66 0.66 1.32 1 2 C1.66 2 2.32 2 3 2 C2.835 3.19625 2.67 4.3925 2.5 5.625 C0.59029508 23.1998206 2.92199104 39.29321187 13.34375 53.96875 C19.15462075 61.09528959 26.04265195 66.32255245 35.33203125 67.37890625 C44.37549654 67.68264127 51.85527215 66.5140084 58.875 60.5625 C59.926875 59.2940625 59.926875 59.2940625 61 58 C62.051875 56.7934375 62.051875 56.7934375 63.125 55.5625 C65.12247509 52.83261737 66.57553312 50.06260379 68 47 C69.485 47.495 69.485 47.495 71 48 C71 50 71 50 69.66796875 51.36328125 C69.11753906 51.90339844 68.56710937 52.44351563 68 53 C67.0685158 54.37229925 66.17265697 55.76940337 65.3125 57.1875 C64.87550781 57.90292969 64.43851562 58.61835938 63.98828125 59.35546875 C63.66214844 59.89816406 63.33601563 60.44085938 63 61 C64.32 62.32 65.64 63.64 67 65 C66.01 64.566875 65.02 64.13375 64 63.6875 C61.46772963 62.94572383 60.40278316 62.81986857 57.96484375 63.91015625 C56.64659604 64.78136813 55.35233849 65.69041754 54.08984375 66.640625 C47.63180582 70.84136743 40.42147688 70.68344179 33 70 C22.06680028 67.51446683 13.50182693 59.84679051 7.52734375 50.625 C-0.75527959 36.38990311 -5.01943379 19.33798625 -1 3 C-0.67 2.01 -0.34 1.02 0 0 Z " fill="#433F37" transform="translate(379,136)"/>
<path d="M0 0 C0.33 0 0.66 0 1 0 C1 6.6 1 13.2 1 20 C-21.82451428 16.32486635 -21.82451428 16.32486635 -28 9 C-28 8.34 -28 7.68 -28 7 C-14.635 7.495 -14.635 7.495 -1 8 C-1 5.69 -1 3.38 -1 1 C-0.67 0.67 -0.34 0.34 0 0 Z " fill="#2B2A2D" transform="translate(52,242)"/>
<path d="M0 0 C3.72099806 3.03754944 7.12588606 6.02286925 10.23046875 9.69140625 C14.06113803 14.12273507 18.10724063 18.29850977 22.25 22.4375 C22.99000244 23.17814697 23.73000488 23.91879395 24.49243164 24.68188477 C29.44335134 29.58544269 34.49912173 34.14511634 39.99609375 38.43359375 C42 40 42 40 44 42 C43.625 44.125 43.625 44.125 43 46 C43 45.34 43 44.68 43 44 C42.46632812 43.7834375 41.93265625 43.566875 41.3828125 43.34375 C38.13203654 41.51052552 35.57182158 39.04518987 32.875 36.5 C32.01720947 35.69804199 32.01720947 35.69804199 31.14208984 34.87988281 C24.06203512 28.22814476 17.11401801 21.48204264 10.8046875 14.0859375 C7.86054553 10.68296821 4.78200361 7.40095882 1.72265625 4.1015625 C0 2 0 2 0 0 Z " fill="#454447" transform="translate(193,140)"/>
<path d="M0 0 C2.375 1.5 2.375 1.5 4 3 C3.74438677 5.3431213 3.40729228 7.67843403 3 10 C-0.04983996 11.52491998 -2.6423369 11.23562548 -6 11 C-7.9375 9.8125 -7.9375 9.8125 -9 8 C-9.42822025 5.14519831 -9.40659584 3.65507108 -7.875 1.1875 C-5.11646047 -0.55957504 -3.20161236 -0.39203417 0 0 Z " fill="#F7810E" transform="translate(431,57)"/>
<path d="M0 0 C0.66 0.33 1.32 0.66 2 1 C-0.09803823 4.74840588 -2.45977754 7.78846277 -5.375 10.9375 C-7.98387707 13.77544921 -10.53728514 16.60861058 -12.9375 19.625 C-13.618125 20.40875 -14.29875 21.1925 -15 22 C-15.66 22 -16.32 22 -17 22 C-17.2475 22.763125 -17.495 23.52625 -17.75 24.3125 C-18.78815363 27.3750532 -19.88033364 30.40437396 -21 33.4375 C-22.52084273 37.59144357 -23.86051846 41.72694423 -25 46 C-25.33 46 -25.66 46 -26 46 C-25.05398393 27.07967858 -12.79826139 12.79826139 0 0 Z " fill="#ADACA9" transform="translate(76,198)"/>
<path d="M0 0 C4.03479603 2.19282393 7.74446187 4.51927637 11.4375 7.25 C20.17465841 13.46785507 30.14388241 17.85812957 40 22 C39.67 22.66 39.34 23.32 39 24 C34.43546992 23.36920122 30.62784674 21.56266686 26.5625 19.5 C25.86672852 19.14977783 25.17095703 18.79955566 24.45410156 18.4387207 C17.32241461 14.77342173 10.61029548 10.52894569 4 6 C3.21109375 5.48050781 2.4221875 4.96101563 1.609375 4.42578125 C1.07828125 3.95527344 0.5471875 3.48476563 0 3 C0 2.01 0 1.02 0 0 Z " fill="#37322A" transform="translate(81,305)"/>
<path d="M0 0 C0.98033203 0.4237793 1.96066406 0.84755859 2.97070312 1.28417969 C4.06898438 1.7546875 5.16726562 2.22519531 6.29882812 2.70996094 C8.008125 3.45052734 8.008125 3.45052734 9.75195312 4.20605469 C18.52002357 7.9885595 27.31480388 11.59265104 36.25195312 14.95605469 C32.36811283 16.25066812 30.98853506 15.36914686 27.19335938 13.93652344 C25.40768555 13.2684668 25.40768555 13.2684668 23.5859375 12.58691406 C22.32877197 12.10580491 21.07161055 11.62468501 19.81445312 11.14355469 C18.56149822 10.67335265 17.30824585 10.20394244 16.0546875 9.73535156 C6.11138285 5.98711828 6.11138285 5.98711828 2.25195312 3.95605469 C2.31382812 5.37917969 2.31382812 5.37917969 2.37695312 6.83105469 C2.25195312 9.95605469 2.25195312 9.95605469 0.25195312 11.95605469 C0.58195313 8.98605469 0.91195312 6.01605469 1.25195312 2.95605469 C0.59195313 2.83230469 -0.06804687 2.70855469 -0.74804688 2.58105469 C-4.4450327 1.81084931 -8.08810629 0.88654806 -11.74804688 -0.04394531 C-7.44634674 -2.75242317 -4.58272208 -1.74091326 0 0 Z " fill="#4A473C" transform="translate(160.748046875,166.0439453125)"/>
<path d="M0 0 C-0.75337646 0.41342651 -0.75337646 0.41342651 -1.52197266 0.83520508 C-12.7967042 7.06881834 -23.1468518 13.68992232 -33 22 C-33.66 21.67 -34.32 21.34 -35 21 C-31.4180438 16.31485577 -27.82799811 13.16457378 -22.875 10 C-22.21846436 9.57356201 -21.56192871 9.14712402 -20.88549805 8.70776367 C-5.01327879 -1.49456439 -5.01327879 -1.49456439 0 0 Z " fill="#484540" transform="translate(111,179)"/>
<path d="M0 0 C0.99 0.33 1.98 0.66 3 1 C3 3 3 3 1.66796875 4.36328125 C1.11753906 4.90339844 0.56710937 5.44351563 0 6 C-0.9314842 7.37229925 -1.82734303 8.76940337 -2.6875 10.1875 C-3.12449219 10.90292969 -3.56148438 11.61835938 -4.01171875 12.35546875 C-4.50091797 13.16951172 -4.50091797 13.16951172 -5 14 C-3.68 15.32 -2.36 16.64 -1 18 C-1.99 17.566875 -2.98 17.13375 -4 16.6875 C-6.53227037 15.94572383 -7.59721684 15.81986857 -10.03515625 16.91015625 C-11.35340396 17.78136813 -12.64766151 18.69041754 -13.91015625 19.640625 C-18.70917487 22.76222964 -23.25008658 23.23979415 -28.875 23.125 C-30.02742188 23.10695312 -31.17984375 23.08890625 -32.3671875 23.0703125 C-33.23601562 23.04710937 -34.10484375 23.02390625 -35 23 C-31.52292328 20.68194885 -29.55795403 20.62993209 -25.4375 20.25 C-17.51965152 19.17957879 -11.34273019 17.01824024 -6.125 10.74609375 C-3.76739487 7.30603049 -1.8293776 3.74344862 0 0 Z " fill="#5A5444" transform="translate(447,183)"/>
<path d="M0 0 C0.495 0.165 0.99 0.33 1.5 0.5 C6.05963297 1.41192659 10.55868337 1.48043888 15 0 C17.33299825 -0.03954234 19.66708189 -0.04401732 22 0 C22 1.32 22 2.64 22 4 C18.15279052 6.56480632 16.24966224 6.09295186 11.6875 5.75 C9.74423828 5.61851562 9.74423828 5.61851562 7.76171875 5.484375 C4.25680444 5.03306724 1.29509955 4.24651828 -2 3 C-1.34 2.01 -0.68 1.02 0 0 Z " fill="#F2CC2A" transform="translate(338,294)"/>
<path d="M0 0 C0.33 0.66 0.66 1.32 1 2 C1.66 2 2.32 2 3 2 C2.835 3.11375 2.67 4.2275 2.5 5.375 C1.60488185 13.20413196 1.92362242 21.13310946 2 29 C1.01 29.33 0.02 29.66 -1 30 C-1.90365258 25.35884037 -2.19196605 20.84114355 -2.1875 16.125 C-2.18814453 15.42117187 -2.18878906 14.71734375 -2.18945312 13.9921875 C-2.13854357 8.9937953 -1.57510871 4.72532614 0 0 Z " fill="#4C4229" transform="translate(379,136)"/>
<path d="M0 0 C0.99 0 1.98 0 3 0 C2.34 2.31 1.68 4.62 1 7 C2.14339844 7.39832031 3.28679687 7.79664063 4.46484375 8.20703125 C5.95594781 8.74157799 7.44682151 9.27676763 8.9375 9.8125 C9.69224609 10.07353516 10.44699219 10.33457031 11.22460938 10.60351562 C13.18366505 11.31510087 15.09663488 12.15061557 17 13 C17.33 13.99 17.66 14.98 18 16 C15.75959308 15.33757199 13.52158748 14.6679437 11.28515625 13.9921875 C9.51525088 13.4576382 7.74491812 12.92445203 5.97216797 12.39941406 C3.79167193 11.75279438 1.61449423 11.09580243 -0.5625 10.4375 C-1.27728516 10.22778564 -1.99207031 10.01807129 -2.72851562 9.80200195 C-4.50456538 9.25972447 -6.25536389 8.63613086 -8 8 C-8.33 7.34 -8.66 6.68 -9 6 C-7.02 6 -5.04 6 -3 6 C-2.01 4.02 -1.02 2.04 0 0 Z " fill="#403C31" transform="translate(271,160)"/>
<path d="M0 0 C4.19087037 1.48232637 7.56686853 3.58816879 11.25 6.0625 C19.18807775 11.30587188 27.53994533 15.6675507 36 20 C35.505 21.485 35.505 21.485 35 23 C26.11329634 18.20553862 17.47555404 13.15312104 9.0625 7.5625 C8.27568848 7.04268555 7.48887695 6.52287109 6.67822266 5.98730469 C5.58646729 5.25302246 5.58646729 5.25302246 4.47265625 4.50390625 C3.82562744 4.06892822 3.17859863 3.6339502 2.51196289 3.18579102 C1 2 1 2 0 0 Z " fill="#555457" transform="translate(173,155)"/>
<path d="M0 0 C0.66 0.66 1.32 1.32 2 2 C1.625 4.625 1.625 4.625 1 7 C0.34 7 -0.32 7 -1 7 C-1.33 7.99 -1.66 8.98 -2 10 C-5.96 9.67 -9.92 9.34 -14 9 C-14 8.67 -14 8.34 -14 8 C-12.98679687 7.90912109 -12.98679687 7.90912109 -11.953125 7.81640625 C-11.06109375 7.73261719 -10.1690625 7.64882813 -9.25 7.5625 C-8.36828125 7.48128906 -7.4865625 7.40007812 -6.578125 7.31640625 C-4.30649548 7.03761535 -2.20148177 6.61209423 0 6 C0 4.68 0 3.36 0 2 C-0.6290625 2.144375 -1.258125 2.28875 -1.90625 2.4375 C-7.40566619 3.63014447 -12.37666943 4.2082715 -18 4 C-18 3.67 -18 3.34 -18 3 C-16.12743583 2.49095343 -14.25180659 1.99317545 -12.375 1.5 C-11.33085937 1.2215625 -10.28671875 0.943125 -9.2109375 0.65625 C-6.00495185 0.00101206 -3.26018512 -0.26156213 0 0 Z " fill="#433E2C" transform="translate(360,292)"/>
<path d="M0 0 C0.45543387 5.69292334 -0.31753614 8.6015015 -4 13 C-6.25 14.375 -6.25 14.375 -8 15 C-8.33 14.34 -8.66 13.68 -9 13 C-8.109375 10.46875 -8.109375 10.46875 -6.75 7.5 C-6.31171875 6.5203125 -5.8734375 5.540625 -5.421875 4.53125 C-2.87654321 0 -2.87654321 0 0 0 Z " fill="#4C4B4E" transform="translate(63,218)"/>
<path d="M0 0 C-0.33 0.66 -0.66 1.32 -1 2 C-12.39539394 5.79846465 -28.14260988 2.57136725 -40 2 C-40 1.67 -40 1.34 -40 1 C-35.74998108 0.85565829 -31.49990075 0.71332569 -27.24975586 0.57275391 C-25.80768066 0.52478668 -24.36562276 0.47629615 -22.92358398 0.42724609 C-15.28065457 0.16762492 -7.64868126 -0.0683681 0 0 Z " fill="#534423" transform="translate(231,341)"/>
<path d="M0 0 C0.66 0 1.32 0 2 0 C2.32871094 0.66644531 2.65742188 1.33289063 2.99609375 2.01953125 C7.69851518 11.13126925 13.662442 18.84505091 21 26 C20.34 26.66 19.68 27.32 19 28 C0 7.278125 0 7.278125 0 0 Z " fill="#5A4922" transform="translate(289,289)"/>
<path d="M0 0 C9.57142857 3.14285714 9.57142857 3.14285714 14 5 C14 5.33 14 5.66 14 6 C13.15695313 6.13277344 12.31390625 6.26554688 11.4453125 6.40234375 C10.34960938 6.57894531 9.25390625 6.75554687 8.125 6.9375 C6.48917969 7.19853516 6.48917969 7.19853516 4.8203125 7.46484375 C2.06178454 7.85551159 2.06178454 7.85551159 0 9 C0 6.03 0 3.06 0 0 Z " fill="#F7D640" transform="translate(163,170)"/>
<path d="M0 0 C4.73789165 1.44323469 8.98858151 3.37226733 13.375 5.625 C14.01566406 5.94984375 14.65632812 6.2746875 15.31640625 6.609375 C16.87947501 7.40257407 18.44000622 8.20077031 20 9 C19.01 10.485 19.01 10.485 18 12 C18 11.34 18 10.68 18 10 C17.31550781 9.90847656 16.63101563 9.81695312 15.92578125 9.72265625 C12.29943637 8.82696359 9.44952692 7.24973718 6.1875 5.4375 C5.59001953 5.10814453 4.99253906 4.77878906 4.37695312 4.43945312 C2.91466002 3.63226733 1.4568601 2.81695083 0 2 C0 1.34 0 0.68 0 0 Z " fill="#3E3D3F" transform="translate(209,176)"/>
<path d="M0 0 C4.49128502 3.66635512 8.34147034 7.41765983 12.08984375 11.83203125 C15.53385636 15.74087992 19.27999851 19.35591691 23 23 C22.34 23.66 21.68 24.32 21 25 C18.62242649 22.48158357 16.24842816 19.959823 13.875 17.4375 C12.87726563 16.38079102 12.87726563 16.38079102 11.859375 15.30273438 C0 2.68761489 0 2.68761489 0 0 Z " fill="#5C5B5D" transform="translate(193,140)"/>
<path d="M0 0 C3.8968305 3.8968305 4.95643745 8.99176405 5.03515625 14.42773438 C4.88981097 20.29711861 4.48623502 26.14985188 4 32 C3.67 32 3.34 32 3 32 C2.96261719 30.75605469 2.92523438 29.51210937 2.88671875 28.23046875 C2.57426174 19.82537512 2.25714902 11.97170881 -0.4765625 3.93359375 C-1 2 -1 2 0 0 Z " fill="#626164" transform="translate(448,137)"/>
<path d="M0 0 C1.32 0.33 2.64 0.66 4 1 C5.25 7.625 5.25 7.625 3 11 C2.01 11 1.02 11 0 11 C0 7.37 0 3.74 0 0 Z " fill="#DEDEDF" transform="translate(453,160)"/>
<path d="M0 0 C4.39855619 3.98619155 7.62503422 8.57036052 11.0625 13.39453125 C13.18352875 16.24680176 15.37353624 18.61976722 18 21 C17.01 21.33 16.02 21.66 15 22 C0 4.52427184 0 4.52427184 0 0 Z " fill="#564723" transform="translate(295,286)"/>
<path d="M0 0 C0.33 0.66 0.66 1.32 1 2 C-4.80311216 6.34044249 -10.06442923 9.81657957 -17 12 C-17.33 11.01 -17.66 10.02 -18 9 C-17.20335937 8.68546875 -16.40671875 8.3709375 -15.5859375 8.046875 C-9.99168193 5.78739465 -4.83667754 3.62750816 0 0 Z " fill="#483E27" transform="translate(455,229)"/>
<path d="M0 0 C0.99 0.33 1.98 0.66 3 1 C0.24881027 3.85215083 -2.60315225 6.34358701 -5.75 8.75 C-6.54921875 9.36359375 -7.3484375 9.9771875 -8.171875 10.609375 C-8.77515625 11.06828125 -9.3784375 11.5271875 -10 12 C-10.66 11.67 -11.32 11.34 -12 11 C-8.43569436 6.35560175 -5.01847157 3.06684374 0 0 Z " fill="#625F57" transform="translate(88,189)"/>
<path d="M0 0 C2.375 2.1875 2.375 2.1875 4 5 C3.75 8.8125 3.75 8.8125 3 12 C2.67 12 2.34 12 2 12 C1.938125 10.9275 1.87625 9.855 1.8125 8.75 C1.31929204 4.94443639 1.31929204 4.94443639 -1.1875 2.625 C-4.20918495 0.87913759 -6.54580883 0.32132011 -10 0 C-10 -0.33 -10 -0.66 -10 -1 C-5.95202225 -2.15656507 -3.69172878 -2.08251367 0 0 Z " fill="#453528" transform="translate(381,45)"/>
<path d="M0 0 C-2.76300523 1.84200349 -5.45169407 3.30773825 -8.4375 4.75 C-9.38496094 5.21921875 -10.33242187 5.6884375 -11.30859375 6.171875 C-14 7 -14 7 -16.34765625 6.140625 C-16.89292969 5.76421875 -17.43820313 5.3878125 -18 5 C-16.13103445 4.15321949 -14.25449819 3.32313789 -12.375 2.5 C-10.80878906 1.80390625 -10.80878906 1.80390625 -9.2109375 1.09375 C-5.91875709 -0.02767398 -3.44884777 -0.207138 0 0 Z " fill="#3B3A3C" transform="translate(127,172)"/>
<path d="M0 0 C0.99 0.33 1.98 0.66 3 1 C2.67 5.62 2.34 10.24 2 15 C1.67 15 1.34 15 1 15 C0.67 11.04 0.34 7.08 0 3 C-1.32 4.32 -2.64 5.64 -4 7 C-4.66 6.67 -5.32 6.34 -6 6 C-4.02 4.02 -2.04 2.04 0 0 Z " fill="#443E33" transform="translate(476,193)"/>
<path d="M0 0 C2.6015625 0.2421875 2.6015625 0.2421875 5.625 0.875 C6.62789063 1.07867187 7.63078125 1.28234375 8.6640625 1.4921875 C9.43492187 1.65976562 10.20578125 1.82734375 11 2 C10.01 2.33 9.02 2.66 8 3 C8 3.66 8 4.32 8 5 C4.28111761 4.49287967 1.26545761 3.88391785 -2 2 C-1.34 1.34 -0.68 0.68 0 0 Z " fill="#E8B91C" transform="translate(338,294)"/>
<path d="M0 0 C4.61286713 1.31796204 8.14865412 3.13388214 12 6 C12.33 6.66 12.66 7.32 13 8 C9.61108678 7.31113213 6.81988387 6.01283514 3.75 4.4375 C2.85796875 3.98246094 1.9659375 3.52742187 1.046875 3.05859375 C0.37140625 2.70925781 -0.3040625 2.35992187 -1 2 C-0.67 1.34 -0.34 0.68 0 0 Z " fill="#403F41" transform="translate(458,129)"/>
<path d="M0 0 C7.41539401 0.48625535 7.41539401 0.48625535 10.0625 2.8125 C11.16192618 5.37782775 11.00516936 6.44138709 10 9 C9.67 8.21625 9.34 7.4325 9 6.625 C6.1172783 2.84142777 3.60565207 2.83052742 -1 2 C-0.67 1.34 -0.34 0.68 0 0 Z " fill="#312D2C" transform="translate(426,55)"/>
<path d="M0 0 C0 2.31 0 4.62 0 7 C-0.99 7.495 -0.99 7.495 -2 8 C-2.33 7.34 -2.66 6.68 -3 6 C-3.33 6.66 -3.66 7.32 -4 8 C-4.66 8 -5.32 8 -6 8 C-3.73913043 0 -3.73913043 0 0 0 Z " fill="#464547" transform="translate(63,218)"/>
<path d="M0 0 C0 3 0 3 -1.75 5.04296875 C-2.4925 5.75066406 -3.235 6.45835937 -4 7.1875 C-4.7425 7.90292969 -5.485 8.61835938 -6.25 9.35546875 C-7.11625 10.16951172 -7.11625 10.16951172 -8 11 C-8.66 10.67 -9.32 10.34 -10 10 C-8.90033225 8.70450101 -7.79508199 7.41373929 -6.6875 6.125 C-6.07261719 5.40570313 -5.45773437 4.68640625 -4.82421875 3.9453125 C-3 2 -3 2 0 0 Z " fill="#2D2B2D" transform="translate(459,253)"/>
<path d="M0 0 C0.33 0 0.66 0 1 0 C1.33 5.28 1.66 10.56 2 16 C1.01 16.33 0.02 16.66 -1 17 C-0.67 11.39 -0.34 5.78 0 0 Z " fill="#4F4D49" transform="translate(379,149)"/>
<path d="M0 0 C0.99 0.33 1.98 0.66 3 1 C3 3 3 3 1.75 4.3125 C1.1725 4.869375 0.595 5.42625 0 6 C-1.34736973 7.65533995 -2.68334336 9.32012773 -4 11 C-4.66 10.67 -5.32 10.34 -6 10 C-5.65066406 9.44570312 -5.30132812 8.89140625 -4.94140625 8.3203125 C-4.48636719 7.59585938 -4.03132813 6.87140625 -3.5625 6.125 C-3.11003906 5.40570313 -2.65757812 4.68640625 -2.19140625 3.9453125 C-0.97538499 2.0222453 -0.97538499 2.0222453 0 0 Z " fill="#585759" transform="translate(447,183)"/>
<path d="M0 0 C0.99 0.33 1.98 0.66 3 1 C1.125 6.75 1.125 6.75 0 9 C-0.66 9 -1.32 9 -2 9 C-1.125 2.25 -1.125 2.25 0 0 Z " fill="#3E3A33" transform="translate(382,129)"/>
<path d="M0 0 C0 2.71929057 -0.05620165 4.4832044 -1 7 C-3.0625 8.75 -3.0625 8.75 -5 10 C-4.49701212 5.59885603 -2.91227269 3.28804981 0 0 Z " fill="#999895" transform="translate(65,210)"/>
<path d="M0 0 C0.33 0.66 0.66 1.32 1 2 C1.66 2 2.32 2 3 2 C2.67 4.97 2.34 7.94 2 11 C-1 8 -1 8 -1.07421875 5.95703125 C-0.71614583 3.97135417 -0.35807292 1.98567708 0 0 Z " fill="#5A5446" transform="translate(379,136)"/>
<path d="M0 0 C0 0.66 0 1.32 0 2 C-6.75 6 -6.75 6 -9 6 C-8 3 -8 3 -5.625 1.3125 C-3 0 -3 0 0 0 Z " fill="#53504A" transform="translate(99,184)"/>
<path d="M0 0 C2.4375 1.1875 2.4375 1.1875 5 3 C5.8125 5.6875 5.8125 5.6875 6 8 C5.67 7.34 5.34 6.68 5 6 C4.0409375 5.5359375 4.0409375 5.5359375 3.0625 5.0625 C1 4 1 4 -1 1 C-0.67 0.67 -0.34 0.34 0 0 Z " fill="#3E3D40" transform="translate(231,178)"/>
<path d="M0 0 C-2.25 2.0625 -2.25 2.0625 -5 4 C-7.3125 3.75 -7.3125 3.75 -9 3 C-6.40821726 0.40821726 -3.54324677 -1.77162338 0 0 Z " fill="#463B27" transform="translate(292,326)"/>
</svg>
